<svg width="50" height="20" viewBox="0 0 50 20" fill="none" xmlns="http://www.w3.org/2000/svg">
<path d="M0 0.0112209C0 0.0196362 0.960892 1.36045 2.13749 2.99299C3.3113 4.62553 4.91652 6.85554 5.70092 7.94951C6.48812 9.04067 7.12685 9.9439 7.12405 9.95792C7.12125 9.97195 5.51602 12.23 3.55782 14.979C1.60242 17.7279 0 19.9804 0 19.9888C0 19.9944 4.79045 20 10.6454 20H21.2909V15.8485V11.6971H23.123H24.9552L26.101 13.9046C26.7341 15.122 27.7034 16.9902 28.2553 18.0561L29.261 19.9972L32.3594 20H35.4578L37.2002 18.2721L38.9399 16.5442V14.1206V11.6971H40.4051C42.7163 11.6971 43.6547 11.6269 44.7865 11.3717C45.641 11.1809 46.5402 10.7966 47.2938 10.3001C48.5292 9.48387 49.3305 8.31978 49.6358 6.90323C49.7058 6.57223 49.7114 6.5021 49.7114 5.84853C49.7114 5.28752 49.7002 5.09677 49.661 4.89481C49.5013 4.08976 49.238 3.43899 48.815 2.80785C47.8765 1.40813 46.4562 0.555399 44.4868 0.210379C43.4222 0.0252457 42.7639 0 38.7662 0H35.4662V8.24684V16.4937L33.3595 16.4881L31.2556 16.4797L29.8465 13.7307C29.0705 12.2188 28.4346 10.9734 28.4346 10.9649C28.4346 10.9565 28.569 10.8892 28.7315 10.8135C30.5692 9.97195 31.7739 8.43478 32.0372 6.60028C32.096 6.18513 32.0932 5.48387 32.0344 5.06311C31.7907 3.37167 30.7738 1.89902 29.247 1.02945C28.3925 0.541374 27.3616 0.24404 26.0533 0.098177C25.3306 0.0196342 24.4005 0 21.1172 0H17.8171V8.24684V16.4937H12.2955C7.88884 16.4937 6.77947 16.4853 6.79628 16.4572C6.80749 16.4404 7.84962 14.9705 9.11026 13.1921C10.3709 11.4165 11.4018 9.94951 11.4018 9.93548C11.4018 9.92146 10.3681 8.47125 9.10466 6.71529L6.80749 3.52034L10.7435 3.51192L14.6795 3.50631V1.75315V0H7.33976C3.30289 0 0 0.00560951 0 0.0112209ZM26.4119 3.54278C27.0815 3.64937 27.412 3.79523 27.737 4.12062C28.09 4.47405 28.2721 4.80785 28.3673 5.2763C28.4262 5.56522 28.4093 6.23001 28.3365 6.49369C28.2301 6.87517 28.0312 7.21178 27.7258 7.53717C27.3644 7.91865 27.003 8.10098 26.3055 8.25526C25.6331 8.40673 25.3866 8.42076 23.2603 8.43478L21.2909 8.44881V5.96073V3.47546L23.7085 3.48668C25.7704 3.49509 26.1654 3.50351 26.4119 3.54278ZM44.0638 3.54278C44.4644 3.60729 44.6577 3.66339 44.921 3.78682C45.4056 4.01964 45.8259 4.54418 45.9855 5.11921C46.0472 5.34923 46.0724 5.97195 46.0304 6.24404C45.9407 6.79383 45.6942 7.24264 45.2628 7.64656C44.9322 7.95792 44.596 8.11501 43.9517 8.25806C43.2822 8.40673 43.0328 8.42076 40.9093 8.43478L38.9399 8.44881V5.96073V3.47546L41.3576 3.48668C43.4334 3.49509 43.8144 3.50351 44.0638 3.54278Z" fill="#0737A0"/>
</svg>
